<?xml version="1.0" encoding="utf-8"?>
<svg xmlns="http://www.w3.org/2000/svg"
	xmlns:xlink="http://www.w3.org/1999/xlink"
	width="23px" height="22px" viewBox="0 0 23 22">
<path fillRule="evenodd" d="M 11.53 21.35C 5.64 21.35 0.85 16.56 0.85 10.68 0.85 4.79 5.64 0.01 11.53 0.01 17.42 0.01 22.21 4.79 22.21 10.68 22.21 16.56 17.42 21.35 11.53 21.35ZM 11.53 1.34C 6.38 1.34 2.19 5.53 2.19 10.68 2.19 15.83 6.38 20.02 11.53 20.02 16.69 20.02 20.88 15.83 20.88 10.68 20.88 5.53 16.69 1.34 11.53 1.34ZM 10.87 15.35C 10.87 15.35 12.2 15.35 12.2 15.35 12.2 15.35 12.2 16.68 12.2 16.68 12.2 16.68 10.87 16.68 10.87 16.68 10.87 16.68 10.87 15.35 10.87 15.35ZM 10.87 4.68C 10.87 4.68 12.2 4.68 12.2 4.68 12.2 4.68 12.2 14.01 12.2 14.01 12.2 14.01 10.87 14.01 10.87 14.01 10.87 14.01 10.87 4.68 10.87 4.68Z" fill="rgb(63,63,63)"/></svg>