<?xml version="1.0" encoding="utf-8"?>
<svg xmlns="http://www.w3.org/2000/svg"
	xmlns:xlink="http://www.w3.org/1999/xlink"
	width="12px" height="12px" viewBox="0 0 12 12">
<path fillRule="evenodd" d="M 11.05 0.54C 11.54 1.04 11.54 1.86 11.05 2.36 11.05 2.36 2.13 11.43 2.13 11.43 1.64 11.93 0.84 11.93 0.35 11.43-0.14 10.93-0.14 10.12 0.35 9.62 0.35 9.62 9.26 0.54 9.26 0.54 9.76 0.04 10.55 0.04 11.05 0.54Z" fill="rgb(255,0,0)"/><path fillRule="evenodd" d="M 0.6 0.4C 1.1-0.12 1.93-0.12 2.43 0.4 2.43 0.4 11.61 9.74 11.61 9.74 12.12 10.25 12.12 11.09 11.61 11.61 11.1 12.12 10.28 12.12 9.78 11.61 9.78 11.61 0.6 2.26 0.6 2.26 0.09 1.75 0.09 0.91 0.6 0.4Z" fill="rgb(255,0,0)"/></svg>