<?xml version="1.0" encoding="utf-8"?>
<svg xmlns="http://www.w3.org/2000/svg"
	xmlns:xlink="http://www.w3.org/1999/xlink"
	width="30px" height="30px" viewBox="0 0 30 30">
<path fillRule="evenodd" d="M 26.67 0C 26.67 0 3.33 0 3.33 0 1.5 0 0 1.5 0 3.33 0 3.33 0 26.67 0 26.67 0 28.5 1.5 30 3.33 30 3.33 30 26.67 30 26.67 30 28.5 30 30 28.5 30 26.67 30 26.67 30 3.33 30 3.33 30 1.5 28.5 0 26.67 0ZM 11.67 23.33C 11.67 23.33 3.33 15 3.33 15 3.33 15 5.67 12.67 5.67 12.67 5.67 12.67 11.67 18.67 11.67 18.67 11.67 18.67 24.33 6 24.33 6 24.33 6 26.67 8.33 26.67 8.33 26.67 8.33 11.67 23.33 11.67 23.33Z" fill="rgb(247,205,13)"/></svg>