<?xml version="1.0" encoding="utf-8"?>
<svg xmlns="http://www.w3.org/2000/svg"
	xmlns:xlink="http://www.w3.org/1999/xlink"
	width="24px" height="24px" viewBox="0 0 24 24">
<path fillRule="evenodd" d="M 12 24C 5.38 24-0 18.62-0 12-0 5.38 5.38-0 12-0 18.62-0 24 5.38 24 12 24 18.62 18.62 24 12 24ZM 12 2.18C 6.59 2.18 2.18 6.59 2.18 12 2.18 17.41 6.59 21.82 12 21.82 17.41 21.82 21.82 17.41 21.82 12 21.82 6.59 17.41 2.18 12 2.18ZM 12 8C 11.2 8 10.55 7.35 10.55 6.55 10.55 5.74 11.2 5.09 12 5.09 12.8 5.09 13.45 5.74 13.45 6.55 13.45 7.35 12.8 8 12 8ZM 12 10.18C 12.6 10.18 13.09 10.67 13.09 11.27 13.09 11.27 13.09 17.82 13.09 17.82 13.09 18.42 12.6 18.91 12 18.91 11.4 18.91 10.91 18.42 10.91 17.82 10.91 17.82 10.91 11.27 10.91 11.27 10.91 10.67 11.4 10.18 12 10.18Z" fill="rgb(247,205,13)"/></svg>