<?xml version="1.0" encoding="utf-8"?>
<svg xmlns="http://www.w3.org/2000/svg"
	xmlns:xlink="http://www.w3.org/1999/xlink"
	width="22px" height="22px" viewBox="0 0 22 22">
<path fillRule="evenodd" d="M 13.24 4.38C 13.24 4.38 17.57 8.7 17.57 8.7 17.57 8.7 6.61 19.65 6.61 19.65 6.61 19.65 2.28 15.32 2.28 15.32 2.28 15.32 13.24 4.38 13.24 4.38ZM 20.86 3.33C 20.86 3.33 18.93 1.4 18.93 1.4 18.18 0.66 16.97 0.66 16.22 1.4 16.22 1.4 14.37 3.25 14.37 3.25 14.37 3.25 18.7 7.58 18.7 7.58 18.7 7.58 20.86 5.42 20.86 5.42 21.44 4.84 21.44 3.91 20.86 3.33ZM 0.01 21.4C-0.07 21.75 0.25 22.07 0.61 21.99 0.61 21.99 5.44 20.82 5.44 20.82 5.44 20.82 1.11 16.49 1.11 16.49 1.11 16.49 0.01 21.4 0.01 21.4Z" fill="rgb(51,51,51)"/></svg>