<?xml version="1.0" encoding="utf-8"?>
<svg xmlns="http://www.w3.org/2000/svg"
	xmlns:xlink="http://www.w3.org/1999/xlink"
	width="15px" height="22px" viewBox="0 0 15 22">
<path fillRule="evenodd" d="M 14.67 5.13C 14.67 5.13 0.52 2.59 0.52 2.59 0.52 2.59 0.86 0.7 0.86 0.7 0.92 0.37 1.24 0.15 1.57 0.21 1.57 0.21 5.68 0.95 5.68 0.95 5.68 0.95 5.82 0.16 5.82 0.16 5.84 0.05 5.95-0.02 6.06-0 6.06-0 10.38 0.77 10.38 0.77 10.49 0.79 10.56 0.9 10.54 1.01 10.54 1.01 10.4 1.79 10.4 1.79 10.4 1.79 14.51 2.53 14.51 2.53 14.85 2.59 15.07 2.9 15.01 3.24 15.01 3.24 14.67 5.13 14.67 5.13ZM 13.4 20.22C 13.38 20.74 12.95 21.15 12.43 21.15 12.43 21.15 3.38 21.15 3.38 21.15 2.86 21.15 2.43 20.74 2.41 20.22 2.41 20.22 1.76 6.51 1.76 6.51 1.76 6.51 14.05 6.51 14.05 6.51 14.05 6.51 13.4 20.22 13.4 20.22ZM 5.86 9.91C 5.86 9.69 5.68 9.52 5.46 9.52 5.46 9.52 4.83 9.52 4.83 9.52 4.61 9.52 4.44 9.69 4.44 9.91 4.44 9.91 4.44 17.75 4.44 17.75 4.44 17.97 4.61 18.14 4.83 18.14 4.83 18.14 5.46 18.14 5.46 18.14 5.68 18.14 5.86 17.97 5.86 17.75 5.86 17.75 5.86 9.91 5.86 9.91ZM 8.61 9.91C 8.61 9.69 8.44 9.52 8.22 9.52 8.22 9.52 7.59 9.52 7.59 9.52 7.37 9.52 7.2 9.69 7.2 9.91 7.2 9.91 7.2 17.75 7.2 17.75 7.2 17.97 7.37 18.14 7.59 18.14 7.59 18.14 8.22 18.14 8.22 18.14 8.44 18.14 8.61 17.97 8.61 17.75 8.61 17.75 8.61 9.91 8.61 9.91ZM 11.37 9.91C 11.37 9.69 11.2 9.52 10.98 9.52 10.98 9.52 10.35 9.52 10.35 9.52 10.13 9.52 9.95 9.69 9.95 9.91 9.95 9.91 9.95 17.75 9.95 17.75 9.95 17.97 10.13 18.14 10.35 18.14 10.35 18.14 10.98 18.14 10.98 18.14 11.2 18.14 11.37 17.97 11.37 17.75 11.37 17.75 11.37 9.91 11.37 9.91Z" fill="rgb(51,51,51)"/></svg>