<?xml version="1.0" encoding="utf-8"?>
<svg xmlns="http://www.w3.org/2000/svg"
	xmlns:xlink="http://www.w3.org/1999/xlink"
	width="29px" height="25px" viewBox="0 0 29 25">
<path fillRule="evenodd" d="M 23.68 10.86C 23.58 10.95 23.45 11 23.3 11 23.16 11 23.04 10.95 22.94 10.85 22.84 10.75 22.79 10.64 22.79 10.5 22.79 10.5 22.79 7.5 22.79 7.5 22.79 7.5 18.64 7.5 18.64 7.5 18.13 7.5 17.66 7.58 17.24 7.74 16.81 7.89 16.44 8.13 16.12 8.44 15.79 8.75 15.52 9.07 15.29 9.4 15.07 9.73 14.82 10.13 14.56 10.61 14.22 11.26 13.8 12.15 13.3 13.28 12.99 13.97 12.72 14.55 12.5 15.02 12.28 15.48 11.99 16.03 11.63 16.66 11.27 17.28 10.92 17.8 10.59 18.22 10.26 18.63 9.86 19.07 9.39 19.51 8.93 19.96 8.44 20.32 7.94 20.59 7.44 20.85 6.86 21.07 6.21 21.24 5.57 21.41 4.88 21.5 4.14 21.5 4.14 21.5 0.52 21.5 0.52 21.5 0.37 21.5 0.24 21.45 0.15 21.36 0.05 21.27 0 21.15 0 21 0 21 0 18 0 18 0 17.85 0.05 17.73 0.15 17.64 0.24 17.55 0.37 17.5 0.52 17.5 0.52 17.5 4.14 17.5 4.14 17.5 4.66 17.5 5.13 17.42 5.55 17.27 5.97 17.11 6.34 16.87 6.67 16.56 6.99 16.25 7.27 15.93 7.49 15.6 7.72 15.27 7.96 14.87 8.22 14.39 8.57 13.75 8.99 12.85 9.48 11.72 9.8 11.03 10.06 10.45 10.28 9.98 10.51 9.52 10.8 8.97 11.16 8.34 11.52 7.72 11.86 7.2 12.19 6.78 12.52 6.37 12.92 5.93 13.39 5.49 13.86 5.04 14.35 4.68 14.85 4.42 15.35 4.15 15.92 3.93 16.57 3.76 17.22 3.59 17.91 3.5 18.64 3.5 18.64 3.5 22.79 3.5 22.79 3.5 22.79 3.5 22.79 0.5 22.79 0.5 22.79 0.36 22.83 0.24 22.93 0.14 23.03 0.05 23.15 0 23.3 0 23.43 0 23.56 0.05 23.69 0.16 23.69 0.16 28.85 5.14 28.85 5.14 28.95 5.24 29 5.36 29 5.5 29 5.65 28.95 5.77 28.85 5.86 28.85 5.86 23.68 10.86 23.68 10.86ZM 7.96 10.15C 7.8 9.86 7.58 9.53 7.31 9.16 7.03 8.78 6.76 8.49 6.48 8.27 6.21 8.06 5.87 7.88 5.46 7.73 5.06 7.58 4.62 7.5 4.14 7.5 4.14 7.5 0.52 7.5 0.52 7.5 0.37 7.5 0.24 7.45 0.15 7.36 0.05 7.27-0 7.15-0 7-0 7-0 4-0 4-0 3.86 0.05 3.74 0.15 3.64 0.24 3.55 0.37 3.5 0.52 3.5 0.52 3.5 4.14 3.5 4.14 3.5 6.84 3.5 9.05 4.67 10.78 7.02 10.13 7.97 9.39 9.4 8.56 11.28 8.32 10.81 8.12 10.44 7.96 10.15ZM 14.82 14.85C 14.99 15.14 15.2 15.47 15.48 15.84 15.75 16.22 16.03 16.51 16.3 16.73 16.58 16.94 16.92 17.12 17.32 17.27 17.73 17.42 18.17 17.5 18.64 17.5 18.64 17.5 22.79 17.5 22.79 17.5 22.79 17.5 22.79 14.5 22.79 14.5 22.79 14.35 22.83 14.23 22.93 14.14 23.03 14.05 23.15 14 23.3 14 23.43 14 23.56 14.05 23.69 14.16 23.69 14.16 28.85 19.14 28.85 19.14 28.95 19.23 29 19.35 29 19.5 29 19.65 28.95 19.76 28.85 19.86 28.85 19.86 23.68 24.86 23.68 24.86 23.58 24.95 23.46 25 23.3 25 23.16 25 23.04 24.95 22.94 24.85 22.84 24.75 22.79 24.63 22.79 24.5 22.79 24.5 22.79 21.5 22.79 21.5 22.44 21.5 21.98 21.5 21.41 21.51 20.84 21.51 20.4 21.52 20.1 21.52 19.8 21.53 19.4 21.52 18.92 21.51 18.43 21.49 18.05 21.46 17.77 21.43 17.49 21.39 17.14 21.34 16.73 21.26 16.32 21.19 15.98 21.1 15.71 20.98 15.44 20.86 15.13 20.71 14.78 20.53 14.42 20.35 14.1 20.14 13.82 19.91 13.54 19.67 13.24 19.39 12.93 19.07 12.62 18.75 12.32 18.39 12.02 17.98 12.66 17.02 13.39 15.59 14.22 13.72 14.46 14.19 14.66 14.57 14.82 14.85Z" fill="rgb(51,51,51)"/></svg>