<?xml version="1.0" encoding="utf-8"?>
<svg xmlns="http://www.w3.org/2000/svg"
	xmlns:xlink="http://www.w3.org/1999/xlink"
	width="22px" height="21px" viewBox="0 0 22 21">
<path fillRule="evenodd" d="M 22 1.22C 22 1.22 20.72 0 20.72 0 20.72 0 11 9.28 11 9.28 11 9.28 1.28 0 1.28 0 1.28 0 0 1.22 0 1.22 0 1.22 9.72 10.5 9.72 10.5 9.72 10.5 0 19.78 0 19.78 0 19.78 1.28 21 1.28 21 1.28 21 11 11.72 11 11.72 11 11.72 20.72 21 20.72 21 20.72 21 22 19.78 22 19.78 22 19.78 12.27 10.5 12.27 10.5 12.27 10.5 22 1.22 22 1.22Z" fill="rgb(51,51,51)"/></svg>