<?xml version="1.0" encoding="utf-8"?>
<svg xmlns="http://www.w3.org/2000/svg"
	xmlns:xlink="http://www.w3.org/1999/xlink"
	width="25px" height="25px" viewBox="0 0 25 25">
<path fillRule="evenodd" d="M 15.55 4.17C 15.55 4.17 20.63 9.28 20.63 9.28 20.63 9.28 7.76 22.22 7.76 22.22 7.76 22.22 2.68 17.11 2.68 17.11 2.68 17.11 15.55 4.17 15.55 4.17ZM 24.49 2.94C 24.49 2.94 22.22 0.66 22.22 0.66 21.35-0.22 19.92-0.22 19.04 0.66 19.04 0.66 16.87 2.84 16.87 2.84 16.87 2.84 21.96 7.95 21.96 7.95 21.96 7.95 24.49 5.41 24.49 5.41 25.17 4.72 25.17 3.62 24.49 2.94ZM 0.01 24.29C-0.08 24.71 0.3 25.08 0.71 24.98 0.71 24.98 6.38 23.6 6.38 23.6 6.38 23.6 1.3 18.49 1.3 18.49 1.3 18.49 0.01 24.29 0.01 24.29Z" fill="rgb(51,51,51)"/></svg>