<?xml version="1.0" encoding="utf-8"?>
<svg xmlns="http://www.w3.org/2000/svg"
	xmlns:xlink="http://www.w3.org/1999/xlink"
	width="29px" height="28px" viewBox="0 0 29 28">
<path fillRule="evenodd" d="M 29 1.62C 29 1.62 27.32 0 27.32 0 27.32 0 14.5 12.38 14.5 12.38 14.5 12.38 1.68 0 1.68 0 1.68 0 0 1.62 0 1.62 0 1.62 12.82 14 12.82 14 12.82 14 0 26.38 0 26.38 0 26.38 1.68 28 1.68 28 1.68 28 14.5 15.62 14.5 15.62 14.5 15.62 27.32 28 27.32 28 27.32 28 29 26.38 29 26.38 29 26.38 16.18 14 16.18 14 16.18 14 29 1.62 29 1.62Z" fill="rgb(107,107,107)"/></svg>