<?xml version="1.0" encoding="utf-8"?>
<svg xmlns="http://www.w3.org/2000/svg"
	xmlns:xlink="http://www.w3.org/1999/xlink"
	width="142px" height="142px" viewBox="0 0 142 142">
<path fillRule="evenodd" d="M 71 142C 31.79 142-0 110.21-0 71-0 31.79 31.79 0 71 0 110.21 0 142 31.79 142 71 142 110.21 110.21 142 71 142ZM 69.72 64.77C 69.72 64.77 69.72 17.45 69.72 17.45 69.72 17.45 57.3 17.45 57.3 17.45 57.3 17.45 57.3 64.77 57.3 64.77 57.3 64.77 57.3 64.77 57.3 64.77 57.3 64.77 57.3 78.47 57.3 78.47 57.3 78.47 122.08 78.47 122.08 78.47 122.08 78.47 122.08 64.77 122.08 64.77 122.08 64.77 69.72 64.77 69.72 64.77Z" fill="rgb(51,51,51)"/></svg>