<?xml version="1.0" encoding="utf-8"?>
<svg xmlns="http://www.w3.org/2000/svg"
	xmlns:xlink="http://www.w3.org/1999/xlink"
	width="19px" height="20px" viewBox="0 0 19 20">
<path fillRule="evenodd" d="M 5.42 13.17C 5.42 13.17 16.68 13.17 16.68 13.17 17.96 13.17 19 12.15 19 10.9 19 10.9 19 6.26 19 6.26 19 6.26 19 6.25 19 6.25 19 6.23 19 6.23 19 6.21 19 6.21 19 6.2 19 6.19 19 6.18 18.99 6.17 18.99 6.16 18.99 6.15 18.99 6.14 18.99 6.14 18.98 6.13 18.98 6.12 18.98 6.11 18.97 6.1 18.97 6.09 18.97 6.08 18.97 6.07 18.97 6.07 18.96 6.06 18.96 6.05 18.95 6.04 18.95 6.03 18.95 6.02 18.94 6.01 18.94 6.01 18.93 6 18.93 5.99 18.92 5.98 18.92 5.97 18.92 5.97 18.91 5.96 18.91 5.95 18.9 5.95 18.89 5.94 18.89 5.93 18.89 5.93 18.88 5.92 18.87 5.91 18.87 5.91 18.86 5.9 18.86 5.89 18.85 5.88 18.84 5.88 18.84 5.87 18.83 5.86 18.83 5.86 18.82 5.85 18.82 5.85 18.81 5.84 18.8 5.84 18.79 5.83 18.79 5.82 18.78 5.82 18.77 5.81 18.76 5.81 18.75 5.8 18.75 5.8 18.74 5.79 18.73 5.79 18.72 5.79 18.71 5.78 18.71 5.77 18.7 5.77 18.69 5.77 18.68 5.76 18.67 5.76 18.66 5.75 18.66 5.75 18.65 5.74 18.64 5.74 18.63 5.74 18.62 5.74 18.61 5.73 18.61 5.73 18.59 5.72 18.58 5.72 18.58 5.72 18.57 5.72 18.56 5.72 18.55 5.72 18.54 5.72 18.53 5.72 18.53 5.72 18.52 5.71 18.51 5.71 18.51 5.71 4.23 3.78 4.23 3.78 4.23 3.78 4.23 1.84 4.23 1.84 4.23 1.82 4.23 1.79 4.23 1.78 4.23 1.77 4.23 1.77 4.23 1.76 4.23 1.75 4.22 1.74 4.22 1.72 4.22 1.71 4.22 1.7 4.21 1.69 4.21 1.68 4.21 1.68 4.21 1.67 4.21 1.66 4.2 1.65 4.2 1.63 4.2 1.63 4.19 1.62 4.19 1.62 4.19 1.61 4.18 1.6 4.18 1.58 4.17 1.58 4.17 1.57 4.17 1.57 4.16 1.56 4.16 1.55 4.15 1.54 4.15 1.54 4.14 1.53 4.14 1.52 4.13 1.51 4.13 1.51 4.13 1.5 4.12 1.49 4.11 1.49 4.11 1.48 4.1 1.47 4.1 1.47 4.1 1.47 4.09 1.46 4.08 1.45 4.07 1.44 4.07 1.44 4.06 1.43 4.06 1.43 4.05 1.42 4.04 1.41 4.03 1.4 4.02 1.4 4.02 1.4 4.01 1.39 4 1.38 3.99 1.38 3.99 1.37 3.97 1.36 3.96 1.35 3.95 1.35 3.95 1.35 3.94 1.35 3.94 1.34 3.92 1.33 3.9 1.33 3.89 1.32 3.89 1.32 0.79 0.04 0.79 0.04 0.5-0.08 0.17 0.06 0.05 0.34-0.08 0.62 0.06 0.95 0.35 1.07 0.35 1.07 3.1 2.2 3.1 2.2 3.1 2.2 3.1 4.72 3.1 4.72 3.1 4.72 3.1 5.12 3.1 5.12 3.1 5.12 3.1 8.17 3.1 8.17 3.1 8.17 3.1 10.91 3.1 10.91 3.1 10.91 3.1 14.36 3.1 14.36 3.1 15.51 3.98 16.46 5.12 16.61 4.91 16.95 4.79 17.34 4.79 17.76 4.79 19 5.82 20 7.08 20 8.34 20 9.37 18.99 9.37 17.76 9.37 17.35 9.26 16.96 9.05 16.63 9.05 16.63 14.16 16.63 14.16 16.63 13.95 16.96 13.84 17.35 13.84 17.76 13.84 19 14.87 20 16.13 20 17.39 20 18.42 18.99 18.42 17.76 18.42 16.53 17.39 15.52 16.13 15.52 16.13 15.52 5.42 15.52 5.42 15.52 4.76 15.52 4.23 15 4.23 14.36 4.23 14.36 4.23 12.86 4.23 12.86 4.57 13.05 4.98 13.17 5.42 13.17ZM 8.24 17.76C 8.24 18.38 7.72 18.89 7.08 18.89 6.45 18.89 5.93 18.38 5.93 17.76 5.93 17.13 6.45 16.63 7.08 16.63 7.72 16.63 8.24 17.13 8.24 17.76ZM 17.29 17.76C 17.29 18.38 16.77 18.89 16.13 18.89 15.5 18.89 14.98 18.38 14.98 17.76 14.98 17.13 15.5 16.63 16.13 16.63 16.77 16.63 17.29 17.13 17.29 17.76ZM 16.68 12.06C 16.68 12.06 5.42 12.06 5.42 12.06 4.76 12.06 4.23 11.54 4.23 10.9 4.23 10.9 4.23 8.17 4.23 8.17 4.23 8.17 4.23 5.11 4.23 5.11 4.23 5.11 4.23 4.9 4.23 4.9 4.23 4.9 17.87 6.74 17.87 6.74 17.87 6.74 17.87 10.9 17.87 10.9 17.87 11.54 17.33 12.06 16.68 12.06Z" fill="rgb(255,255,255)"/></svg>