<?xml version="1.0" encoding="utf-8"?>
<svg xmlns="http://www.w3.org/2000/svg"
	xmlns:xlink="http://www.w3.org/1999/xlink"
	width="20px" height="18px" viewBox="0 0 20 18">
<path fillRule="evenodd" d="M 19.9 7.83C 19.8 7.97 19.64 8.04 19.48 8.04 19.37 8.04 19.26 8.01 19.17 7.94 19.17 7.94 10 1.15 10 1.15 10 1.15 0.83 7.94 0.83 7.94 0.59 8.11 0.27 8.06 0.1 7.83-0.07 7.59-0.02 7.27 0.21 7.09 0.21 7.09 9.69 0.08 9.69 0.08 9.88-0.06 10.12-0.06 10.31 0.08 10.31 0.08 19.79 7.09 19.79 7.09 20.02 7.27 20.07 7.59 19.9 7.83ZM 2.72 8.06C 3.01 8.06 3.24 8.3 3.24 8.59 3.24 8.59 3.24 16.95 3.24 16.95 3.24 16.95 7.4 16.95 7.4 16.95 7.4 16.95 7.4 12.38 7.4 12.38 7.4 10.94 8.57 9.76 10 9.76 11.43 9.76 12.6 10.94 12.6 12.38 12.6 12.38 12.6 16.95 12.6 16.95 12.6 16.95 16.75 16.95 16.75 16.95 16.75 16.95 16.75 8.59 16.75 8.59 16.75 8.3 16.99 8.06 17.27 8.06 17.56 8.06 17.79 8.3 17.79 8.59 17.79 8.59 17.79 17.47 17.79 17.47 17.79 17.76 17.56 18 17.27 18 17.27 18 12.08 18 12.08 18 11.8 18 11.58 17.79 11.56 17.52 11.56 17.5 11.56 17.49 11.56 17.47 11.56 17.47 11.56 12.38 11.56 12.38 11.56 11.52 10.86 10.81 10 10.81 9.14 10.81 8.44 11.52 8.44 12.38 8.44 12.38 8.44 17.47 8.44 17.47 8.44 17.49 8.44 17.5 8.44 17.52 8.42 17.79 8.19 18 7.92 18 7.92 18 2.72 18 2.72 18 2.44 18 2.2 17.76 2.2 17.47 2.2 17.47 2.2 8.59 2.2 8.59 2.2 8.3 2.44 8.06 2.72 8.06Z" fill="rgb(255,255,255)"/></svg>