<?xml version="1.0" encoding="utf-8"?>
<svg xmlns="http://www.w3.org/2000/svg"
	xmlns:xlink="http://www.w3.org/1999/xlink"
	width="23px" height="23px" viewBox="0 0 23 23">
<path fillRule="evenodd" d="M 23 18.81C 23 18.81 18.86 22.92 18.86 22.92 18.86 22.92 11.48 15.57 11.48 15.57 11.48 15.57 4.11 23 4.11 23 4.11 23 0 18.85 0 18.85 0 18.85 7.34 11.45 7.34 11.45 7.34 11.45 0.05 4.19 0.05 4.19 0.05 4.19 4.18 0.07 4.18 0.07 4.18 0.07 11.45 7.31 11.45 7.31 11.45 7.31 18.7 0 18.7 0 18.7 0 22.81 4.15 22.81 4.15 22.81 4.15 15.59 11.43 15.59 11.43 15.59 11.43 23 18.81 23 18.81Z" fill="rgb(0,0,0)"/></svg>