<?xml version="1.0" encoding="utf-8"?>
<svg xmlns="http://www.w3.org/2000/svg"
	xmlns:xlink="http://www.w3.org/1999/xlink"
	width="27px" height="26px" viewBox="0 0 27 26">
<path fillRule="evenodd" d="M 24.33 26C 24.33 26 2.67 26 2.67 26 1.47 26 0.5 25.03 0.5 23.83 0.5 23.83 0.5 4.6 0.5 4.6 0.5 3.41 1.47 2.44 2.67 2.44 2.67 2.44 6.19 2.44 6.19 2.44 6.19 2.44 6.19 0.81 6.19 0.81 6.19 0.36 6.55-0 7-0 7.45-0 7.81 0.36 7.81 0.81 7.81 0.81 7.81 2.44 7.81 2.44 7.81 2.44 12.69 2.44 12.69 2.44 12.69 2.44 12.69 0.81 12.69 0.81 12.69 0.36 13.05-0 13.5-0 13.95-0 14.31 0.36 14.31 0.81 14.31 0.81 14.31 2.44 14.31 2.44 14.31 2.44 19.19 2.44 19.19 2.44 19.19 2.44 19.19 0.81 19.19 0.81 19.19 0.36 19.55-0 20-0 20.45-0 20.81 0.36 20.81 0.81 20.81 0.81 20.81 2.44 20.81 2.44 20.81 2.44 24.33 2.44 24.33 2.44 25.53 2.44 26.5 3.41 26.5 4.6 26.5 4.6 26.5 23.83 26.5 23.83 26.5 25.03 25.53 26 24.33 26ZM 24.88 4.6C 24.88 4.31 24.63 4.06 24.33 4.06 24.33 4.06 20.81 4.06 20.81 4.06 20.81 4.06 20.81 5.69 20.81 5.69 20.81 6.14 20.45 6.5 20 6.5 19.55 6.5 19.19 6.14 19.19 5.69 19.19 5.69 19.19 4.06 19.19 4.06 19.19 4.06 14.31 4.06 14.31 4.06 14.31 4.06 14.31 5.69 14.31 5.69 14.31 6.14 13.95 6.5 13.5 6.5 13.05 6.5 12.69 6.14 12.69 5.69 12.69 5.69 12.69 4.06 12.69 4.06 12.69 4.06 7.81 4.06 7.81 4.06 7.81 4.06 7.81 5.69 7.81 5.69 7.81 6.14 7.45 6.5 7 6.5 6.55 6.5 6.19 6.14 6.19 5.69 6.19 5.69 6.19 4.06 6.19 4.06 6.19 4.06 2.67 4.06 2.67 4.06 2.37 4.06 2.12 4.31 2.12 4.6 2.12 4.6 2.12 23.83 2.12 23.83 2.12 24.13 2.37 24.38 2.67 24.38 2.67 24.38 24.33 24.38 24.33 24.38 24.63 24.38 24.88 24.13 24.88 23.83 24.88 23.83 24.88 4.6 24.88 4.6ZM 17.56 17.88C 17.56 17.88 20.81 17.88 20.81 17.88 20.81 17.88 20.81 20.31 20.81 20.31 20.81 20.31 17.56 20.31 17.56 20.31 17.56 20.31 17.56 17.88 17.56 17.88ZM 17.56 13.81C 17.56 13.81 20.81 13.81 20.81 13.81 20.81 13.81 20.81 16.25 20.81 16.25 20.81 16.25 17.56 16.25 17.56 16.25 17.56 16.25 17.56 13.81 17.56 13.81ZM 17.56 9.75C 17.56 9.75 20.81 9.75 20.81 9.75 20.81 9.75 20.81 12.19 20.81 12.19 20.81 12.19 17.56 12.19 17.56 12.19 17.56 12.19 17.56 9.75 17.56 9.75ZM 11.88 17.88C 11.88 17.88 15.13 17.88 15.13 17.88 15.13 17.88 15.13 20.31 15.13 20.31 15.13 20.31 11.88 20.31 11.88 20.31 11.88 20.31 11.88 17.88 11.88 17.88ZM 11.88 13.81C 11.88 13.81 15.13 13.81 15.13 13.81 15.13 13.81 15.13 16.25 15.13 16.25 15.13 16.25 11.88 16.25 11.88 16.25 11.88 16.25 11.88 13.81 11.88 13.81ZM 11.88 9.75C 11.88 9.75 15.13 9.75 15.13 9.75 15.13 9.75 15.13 12.19 15.13 12.19 15.13 12.19 11.88 12.19 11.88 12.19 11.88 12.19 11.88 9.75 11.88 9.75ZM 6.19 17.88C 6.19 17.88 9.44 17.88 9.44 17.88 9.44 17.88 9.44 20.31 9.44 20.31 9.44 20.31 6.19 20.31 6.19 20.31 6.19 20.31 6.19 17.88 6.19 17.88ZM 6.19 13.81C 6.19 13.81 9.44 13.81 9.44 13.81 9.44 13.81 9.44 16.25 9.44 16.25 9.44 16.25 6.19 16.25 6.19 16.25 6.19 16.25 6.19 13.81 6.19 13.81ZM 6.19 9.75C 6.19 9.75 9.44 9.75 9.44 9.75 9.44 9.75 9.44 12.19 9.44 12.19 9.44 12.19 6.19 12.19 6.19 12.19 6.19 12.19 6.19 9.75 6.19 9.75Z" fill="rgb(51,51,51)"/></svg>