<?xml version="1.0" encoding="utf-8"?>
<svg xmlns="http://www.w3.org/2000/svg"
	xmlns:xlink="http://www.w3.org/1999/xlink"
	width="26px" height="26px" viewBox="0 0 26 26">
<path fillRule="evenodd" d="M 21.03 26C 21.03 26 13 22.04 13 22.04 13 22.04 4.97 26 4.97 26 4.97 26 6.07 16.74 6.07 16.74 6.07 16.74 0 9.93 0 9.93 0 9.93 8.72 8.17 8.72 8.17 8.72 8.17 13 0 13 0 13 0 17.28 8.17 17.28 8.17 17.28 8.17 26 9.93 26 9.93 26 9.93 19.93 16.74 19.93 16.74 19.93 16.74 21.03 26 21.03 26 21.03 26 21.03 26 21.03 26ZM 18.24 21.95C 18.24 21.95 17.52 15.93 17.52 15.93 17.52 15.93 21.47 11.5 21.47 11.5 21.47 11.5 15.8 10.36 15.8 10.36 15.8 10.36 13.02 5.05 13.02 5.05 13.02 5.05 10.23 10.36 10.23 10.36 10.23 10.36 4.57 11.5 4.57 11.5 4.57 11.5 8.51 15.93 8.51 15.93 8.51 15.93 7.79 21.95 7.79 21.95 7.79 21.95 13.02 19.37 13.02 19.37 13.02 19.37 18.24 21.95 18.24 21.95 18.24 21.95 18.24 21.95 18.24 21.95Z" fill="rgb(51,51,51)"/></svg>