<?xml version="1.0" encoding="utf-8"?>
<svg xmlns="http://www.w3.org/2000/svg"
	xmlns:xlink="http://www.w3.org/1999/xlink"
	width="21px" height="30px" viewBox="0 0 21 30">
<path fillRule="evenodd" d="M 20.41 7.65C 20.41 7.65 0.72 4.12 0.72 4.12 0.72 4.12 1.2 1.48 1.2 1.48 1.28 1.02 1.72 0.71 2.18 0.79 2.18 0.79 7.91 1.82 7.91 1.82 7.91 1.82 8.1 0.73 8.1 0.73 8.13 0.58 8.28 0.47 8.43 0.5 8.43 0.5 14.44 1.58 14.44 1.58 14.6 1.61 14.7 1.75 14.67 1.91 14.67 1.91 14.47 3 14.47 3 14.47 3 20.2 4.02 20.2 4.02 20.66 4.11 20.97 4.55 20.88 5.01 20.88 5.01 20.41 7.65 20.41 7.65ZM 18.65 28.7C 18.62 29.43 18.03 30 17.3 30 17.3 30 4.7 30 4.7 30 3.97 30 3.38 29.43 3.35 28.7 3.35 28.7 2.45 9.57 2.45 9.57 2.45 9.57 19.55 9.57 19.55 9.57 19.55 9.57 18.65 28.7 18.65 28.7ZM 8.15 14.32C 8.15 14.02 7.9 13.77 7.6 13.77 7.6 13.77 6.72 13.77 6.72 13.77 6.42 13.77 6.17 14.02 6.17 14.32 6.17 14.32 6.17 25.25 6.17 25.25 6.17 25.55 6.42 25.8 6.72 25.8 6.72 25.8 7.6 25.8 7.6 25.8 7.9 25.8 8.15 25.55 8.15 25.25 8.15 25.25 8.15 14.32 8.15 14.32ZM 11.99 14.32C 11.99 14.02 11.74 13.77 11.44 13.77 11.44 13.77 10.56 13.77 10.56 13.77 10.26 13.77 10.01 14.02 10.01 14.32 10.01 14.32 10.01 25.25 10.01 25.25 10.01 25.55 10.26 25.8 10.56 25.8 10.56 25.8 11.44 25.8 11.44 25.8 11.74 25.8 11.99 25.55 11.99 25.25 11.99 25.25 11.99 14.32 11.99 14.32ZM 15.83 14.32C 15.83 14.02 15.58 13.77 15.28 13.77 15.28 13.77 14.4 13.77 14.4 13.77 14.1 13.77 13.85 14.02 13.85 14.32 13.85 14.32 13.85 25.25 13.85 25.25 13.85 25.55 14.1 25.8 14.4 25.8 14.4 25.8 15.28 25.8 15.28 25.8 15.58 25.8 15.83 25.55 15.83 25.25 15.83 25.25 15.83 14.32 15.83 14.32Z" fill="rgb(247,205,13)"/></svg>