<?xml version="1.0" encoding="utf-8"?>
<svg xmlns="http://www.w3.org/2000/svg"
	xmlns:xlink="http://www.w3.org/1999/xlink"
	width="38px" height="38px" viewBox="0 0 38 38">
<circle cx="19.00" cy="19.00" r="19.00" fill="rgb(247,205,13)"/><path fillRule="evenodd" d="M 14.42 22.17C 14.42 22.17 25.68 22.17 25.68 22.17 26.96 22.17 28 21.15 28 19.9 28 19.9 28 15.26 28 15.26 28 15.26 28 15.25 28 15.25 28 15.23 28 15.23 28 15.21 28 15.21 28 15.2 28 15.19 28 15.18 27.99 15.17 27.99 15.16 27.99 15.15 27.99 15.14 27.99 15.14 27.98 15.13 27.98 15.12 27.98 15.11 27.97 15.1 27.97 15.09 27.97 15.08 27.97 15.07 27.97 15.07 27.96 15.06 27.96 15.05 27.95 15.04 27.95 15.03 27.95 15.02 27.94 15.01 27.94 15.01 27.93 15 27.93 14.99 27.92 14.98 27.92 14.97 27.92 14.97 27.91 14.96 27.91 14.95 27.9 14.95 27.89 14.94 27.89 14.93 27.89 14.93 27.88 14.92 27.87 14.91 27.87 14.9 27.86 14.9 27.86 14.89 27.85 14.88 27.84 14.88 27.84 14.87 27.83 14.86 27.83 14.86 27.82 14.85 27.82 14.85 27.81 14.84 27.8 14.84 27.79 14.83 27.79 14.82 27.78 14.82 27.77 14.81 27.76 14.81 27.75 14.8 27.75 14.8 27.74 14.79 27.73 14.79 27.72 14.79 27.71 14.78 27.71 14.77 27.7 14.77 27.69 14.77 27.68 14.76 27.67 14.76 27.66 14.75 27.66 14.75 27.65 14.74 27.64 14.74 27.63 14.74 27.62 14.74 27.61 14.73 27.61 14.73 27.59 14.72 27.58 14.72 27.58 14.72 27.57 14.72 27.56 14.72 27.55 14.72 27.54 14.72 27.53 14.72 27.53 14.72 27.52 14.71 27.51 14.71 27.51 14.71 13.23 12.78 13.23 12.78 13.23 12.78 13.23 10.84 13.23 10.84 13.23 10.82 13.23 10.79 13.23 10.78 13.23 10.77 13.23 10.77 13.23 10.76 13.23 10.75 13.22 10.74 13.22 10.72 13.22 10.71 13.22 10.7 13.21 10.69 13.21 10.68 13.21 10.68 13.21 10.67 13.21 10.66 13.2 10.65 13.2 10.63 13.2 10.63 13.19 10.62 13.19 10.62 13.19 10.61 13.18 10.6 13.18 10.58 13.17 10.58 13.17 10.57 13.17 10.57 13.16 10.56 13.16 10.55 13.15 10.54 13.15 10.54 13.14 10.53 13.14 10.52 13.13 10.51 13.13 10.51 13.13 10.5 13.12 10.49 13.11 10.49 13.11 10.48 13.1 10.47 13.1 10.47 13.1 10.47 13.09 10.46 13.08 10.45 13.07 10.44 13.07 10.44 13.06 10.43 13.06 10.43 13.05 10.42 13.04 10.41 13.03 10.4 13.02 10.4 13.02 10.4 13.01 10.39 13 10.38 12.99 10.38 12.99 10.37 12.97 10.36 12.96 10.35 12.95 10.35 12.95 10.35 12.94 10.35 12.94 10.34 12.92 10.33 12.9 10.33 12.89 10.32 12.89 10.32 9.79 9.04 9.79 9.04 9.5 8.92 9.17 9.06 9.05 9.34 8.92 9.62 9.06 9.95 9.35 10.07 9.35 10.07 12.1 11.2 12.1 11.2 12.1 11.2 12.1 13.72 12.1 13.72 12.1 13.72 12.1 14.12 12.1 14.12 12.1 14.12 12.1 17.17 12.1 17.17 12.1 17.17 12.1 19.91 12.1 19.91 12.1 19.91 12.1 23.36 12.1 23.36 12.1 24.51 12.98 25.46 14.12 25.61 13.91 25.95 13.79 26.34 13.79 26.76 13.79 28 14.82 29 16.08 29 17.34 29 18.37 27.99 18.37 26.76 18.37 26.35 18.26 25.96 18.05 25.63 18.05 25.63 23.16 25.63 23.16 25.63 22.95 25.96 22.84 26.35 22.84 26.76 22.84 28 23.87 29 25.13 29 26.39 29 27.42 27.99 27.42 26.76 27.42 25.53 26.39 24.52 25.13 24.52 25.13 24.52 14.42 24.52 14.42 24.52 13.76 24.52 13.23 24 13.23 23.36 13.23 23.36 13.23 21.86 13.23 21.86 13.57 22.05 13.98 22.17 14.42 22.17ZM 17.24 26.76C 17.24 27.38 16.72 27.89 16.08 27.89 15.45 27.89 14.93 27.38 14.93 26.76 14.93 26.13 15.45 25.63 16.08 25.63 16.72 25.63 17.24 26.13 17.24 26.76ZM 26.29 26.76C 26.29 27.38 25.77 27.89 25.13 27.89 24.5 27.89 23.98 27.38 23.98 26.76 23.98 26.13 24.5 25.63 25.13 25.63 25.77 25.63 26.29 26.13 26.29 26.76ZM 25.68 21.06C 25.68 21.06 14.42 21.06 14.42 21.06 13.76 21.06 13.23 20.54 13.23 19.9 13.23 19.9 13.23 17.17 13.23 17.17 13.23 17.17 13.23 14.11 13.23 14.11 13.23 14.11 13.23 13.9 13.23 13.9 13.23 13.9 26.87 15.74 26.87 15.74 26.87 15.74 26.87 19.9 26.87 19.9 26.87 20.54 26.33 21.06 25.68 21.06Z" fill="rgb(255,255,255)"/></svg>